<svg width="25" height="24" viewBox="0 0 25 24" fill="none" xmlns="http://www.w3.org/2000/svg">
<path d="M4.39062 18C3.78125 16.4531 2.75 13.6233 2.75 12C2.75 6.615 7.49984 2.25 12.5 2.25C17.5002 2.25 22.25 6.615 22.25 12C22.25 13.6233 21.1719 16.5469 20.6094 18" stroke="#395BFC" stroke-width="2" stroke-linecap="round" stroke-linejoin="round"/>
<path d="M5.58076 12.6623L4.93904 13.0373C3.52201 13.867 3.4531 16.4316 4.7806 18.7655C6.1081 21.0994 8.33701 22.3191 9.75404 21.4898L10.3958 21.1148C10.5661 21.0134 10.6899 20.8492 10.7405 20.6576C10.7912 20.4659 10.7647 20.262 10.6667 20.0897L6.59373 12.9375C6.54571 12.8525 6.4813 12.7779 6.40422 12.7179C6.32714 12.658 6.23894 12.6139 6.14472 12.5883C6.05049 12.5628 5.95213 12.5561 5.85532 12.5688C5.75851 12.5815 5.66519 12.6133 5.58076 12.6623ZM19.4192 12.6623L20.0609 13.0373C21.4779 13.8666 21.5487 16.4311 20.2194 18.765C18.89 21.0989 16.6629 22.3186 15.2459 21.4894L14.6042 21.1144C14.4339 21.0129 14.3101 20.8488 14.2594 20.6571C14.2088 20.4654 14.2353 20.2616 14.3333 20.0892L18.4062 12.9375C18.4542 12.8525 18.5187 12.7779 18.5957 12.7179C18.6728 12.658 18.761 12.6139 18.8552 12.5883C18.9495 12.5628 19.0478 12.5561 19.1446 12.5688C19.2414 12.5815 19.3348 12.6133 19.4192 12.6623Z" stroke="#395BFC" stroke-width="2" stroke-miterlimit="10"/>
</svg>
