<svg width="25" height="24" viewBox="0 0 25 24" fill="none" xmlns="http://www.w3.org/2000/svg">
<path d="M12.5 14C11.6667 14 10.9583 13.7083 10.375 13.125C9.79166 12.5417 9.5 11.8333 9.5 11V5C9.5 4.16667 9.79166 3.45833 10.375 2.875C10.9583 2.29167 11.6667 2 12.5 2C13.3333 2 14.0417 2.29167 14.625 2.875C15.2083 3.45833 15.5 4.16667 15.5 5V11C15.5 11.8333 15.2083 12.5417 14.625 13.125C14.0417 13.7083 13.3333 14 12.5 14ZM12.5 21C12.2167 21 11.979 20.904 11.787 20.712C11.595 20.52 11.4993 20.2827 11.5 20V17.9C9.95 17.7 8.63333 17.0583 7.55 15.975C6.46666 14.8917 5.80833 13.5917 5.575 12.075C5.525 11.7917 5.6 11.5417 5.8 11.325C6 11.1083 6.26666 11 6.6 11C6.83333 11 7.04166 11.0873 7.225 11.262C7.40833 11.4367 7.525 11.6493 7.575 11.9C7.79166 13.0667 8.35833 14.0417 9.275 14.825C10.1917 15.6083 11.2667 16 12.5 16C13.7333 16 14.8083 15.6083 15.725 14.825C16.6417 14.0417 17.2083 13.0667 17.425 11.9C17.475 11.65 17.5957 11.4373 17.787 11.262C17.9783 11.0867 18.191 10.9993 18.425 11C18.7417 11 19 11.1083 19.2 11.325C19.4 11.5417 19.475 11.7917 19.425 12.075C19.1917 13.5917 18.5333 14.8917 17.45 15.975C16.3667 17.0583 15.05 17.7 13.5 17.9V20C13.5 20.2833 13.404 20.521 13.212 20.713C13.02 20.905 12.7827 21.0007 12.5 21Z" fill="#FE891E"/>
</svg>
